<svg xmlns="http://www.w3.org/2000/svg" width="225.53587938509878" height="280.89140624999993" viewBox="0 0 120 149.45280033446875" class="looka-1j8o68f"><defs id="SvgjsDefs2614"/><g id="SvgjsG2615" featurekey="nRdZyp-0" transform="matrix(3.113600006968099,0,0,3.113600006968099,-14.78960003309847,0)" fill="#ffcd38"><title xmlns="http://www.w3.org/2000/svg">movie solid icons</title><path xmlns="http://www.w3.org/2000/svg" d="M42.86.65l0-.65L10.52,6.69l0,.48A82.85,82.85,0,0,1,9.47,24.5,80.6,80.6,0,0,1,5,40.67l-.25.63,7.45,1.55.18-.46c.64-1.7,1.25-3.45,1.79-5.19l17.68,2.43c-.59,2.09-1.25,4.18-2,6.22l-.21.62L37.05,48l.16-.48a113.23,113.23,0,0,0,5.23-22.85A116.12,116.12,0,0,0,42.86.65ZM37.93,2.88l2.74-.55c.08,1.06.15,2.15.2,3.22,0,0,0,0,0,.07l-2.76.45C38.06,5,38,4,37.93,3Zm-2.39.48c.15,2.2.23,4.42.24,6.63L18.11,12.26c0-1.79,0-3.6-.06-5.39Zm-19.94,4c0,.78.05,1.56.06,2.33l-2.76.45c0-.74,0-1.49-.05-2.23ZM12.87,13l2.77-.39c0,.76,0,1.53-.08,2.29l-2.78.28C12.82,14.48,12.85,13.75,12.87,13ZM10.66,39.8l-2.74-.52c.23-.63.45-1.28.67-1.92l2.77.41C11.14,38.45,10.9,39.13,10.66,39.8ZM12.21,35l-2.78-.35c.2-.66.39-1.33.57-2l2.79.26C12.6,33.65,12.41,34.35,12.21,35Zm1.27-4.91-2.79-.19q.24-1,.45-2l2.8.09C13.8,28.71,13.64,29.42,13.48,30.13Zm1-5-2.8,0c.12-.7.23-1.4.33-2.09L14.8,23C14.7,23.69,14.59,24.42,14.47,25.15Zm.69-5.08-2.79.13c.08-.71.15-1.43.21-2.14l2.79-.23C15.31,18.58,15.24,19.33,15.16,20.07Zm.37,12.12a90.64,90.64,0,0,0,2.34-14.6L35.65,16.1a106.47,106.47,0,0,1-2.39,17.73ZM35.78,44.48l0,.05L33,44c.3-.93.59-1.88.86-2.82,0,0,0,0,0-.06l2.77.42C36.38,42.53,36.08,43.51,35.78,44.48Zm1.77-6.22a.14.14,0,0,0,0,.06L34.75,38c.25-1,.49-1.93.7-2.89a.14.14,0,0,0,0-.06l2.79.25C38,36.26,37.8,37.27,37.55,38.26ZM39,31.88s0,0,0,.05l-2.79-.2c.19-1,.37-2,.53-2.94,0,0,0-.05,0-.06l2.8.09C39.34,29.84,39.16,30.87,39,31.88Zm1-6.46s0,0,0,.06l-2.8,0c.14-1,.26-2,.36-3a.64.64,0,0,1,0-.07l2.8-.07C40.27,23.34,40.15,24.39,40,25.42Zm.67-6.55s0,.05,0,.06l-2.79.13c.07-1,.14-2,.19-3V16l2.8-.24C40.82,16.76,40.76,17.82,40.68,18.87ZM41,12.31l-2.78.29c0-1,0-2.07,0-3.09a.17.17,0,0,1,0-.07L41,9.05c0,1.06,0,2.13,0,3.19C41,12.27,41,12.29,41,12.31Z"/></g><g id="SvgjsG2616" featurekey="Q4qmbg-0" transform="matrix(1,0,0,1,145,75)" fill="#4a4a4a"><path d=""/></g></svg>