<svg xmlns="http://www.w3.org/2000/svg" width="364.79999999999995" height="121.15640347114265" viewBox="0 0 375 124.54400027872396" class="looka-1j8o68f"><defs id="SvgjsDefs2138"/><g id="SvgjsG2139" featurekey="nRdZyp-0" transform="matrix(2.5946666724734158,0,0,2.5946666724734158,-12.324666694248725,0)" fill="#ffcd38"><title xmlns="http://www.w3.org/2000/svg">movie solid icons</title><path xmlns="http://www.w3.org/2000/svg" d="M42.86.65l0-.65L10.52,6.69l0,.48A82.85,82.85,0,0,1,9.47,24.5,80.6,80.6,0,0,1,5,40.67l-.25.63,7.45,1.55.18-.46c.64-1.7,1.25-3.45,1.79-5.19l17.68,2.43c-.59,2.09-1.25,4.18-2,6.22l-.21.62L37.05,48l.16-.48a113.23,113.23,0,0,0,5.23-22.85A116.12,116.12,0,0,0,42.86.65ZM37.93,2.88l2.74-.55c.08,1.06.15,2.15.2,3.22,0,0,0,0,0,.07l-2.76.45C38.06,5,38,4,37.93,3Zm-2.39.48c.15,2.2.23,4.42.24,6.63L18.11,12.26c0-1.79,0-3.6-.06-5.39Zm-19.94,4c0,.78.05,1.56.06,2.33l-2.76.45c0-.74,0-1.49-.05-2.23ZM12.87,13l2.77-.39c0,.76,0,1.53-.08,2.29l-2.78.28C12.82,14.48,12.85,13.75,12.87,13ZM10.66,39.8l-2.74-.52c.23-.63.45-1.28.67-1.92l2.77.41C11.14,38.45,10.9,39.13,10.66,39.8ZM12.21,35l-2.78-.35c.2-.66.39-1.33.57-2l2.79.26C12.6,33.65,12.41,34.35,12.21,35Zm1.27-4.91-2.79-.19q.24-1,.45-2l2.8.09C13.8,28.71,13.64,29.42,13.48,30.13Zm1-5-2.8,0c.12-.7.23-1.4.33-2.09L14.8,23C14.7,23.69,14.59,24.42,14.47,25.15Zm.69-5.08-2.79.13c.08-.71.15-1.43.21-2.14l2.79-.23C15.31,18.58,15.24,19.33,15.16,20.07Zm.37,12.12a90.64,90.64,0,0,0,2.34-14.6L35.65,16.1a106.47,106.47,0,0,1-2.39,17.73ZM35.78,44.48l0,.05L33,44c.3-.93.59-1.88.86-2.82,0,0,0,0,0-.06l2.77.42C36.38,42.53,36.08,43.51,35.78,44.48Zm1.77-6.22a.14.14,0,0,0,0,.06L34.75,38c.25-1,.49-1.93.7-2.89a.14.14,0,0,0,0-.06l2.79.25C38,36.26,37.8,37.27,37.55,38.26ZM39,31.88s0,0,0,.05l-2.79-.2c.19-1,.37-2,.53-2.94,0,0,0-.05,0-.06l2.8.09C39.34,29.84,39.16,30.87,39,31.88Zm1-6.46s0,0,0,.06l-2.8,0c.14-1,.26-2,.36-3a.64.64,0,0,1,0-.07l2.8-.07C40.27,23.34,40.15,24.39,40,25.42Zm.67-6.55s0,.05,0,.06l-2.79.13c.07-1,.14-2,.19-3V16l2.8-.24C40.82,16.76,40.76,17.82,40.68,18.87ZM41,12.31l-2.78.29c0-1,0-2.07,0-3.09a.17.17,0,0,1,0-.07L41,9.05c0,1.06,0,2.13,0,3.19C41,12.27,41,12.29,41,12.31Z"/></g><g id="SvgjsG2140" featurekey="Q4qmbg-0" transform="matrix(4.42791363892802,0,0,4.42791363892802,119.86362296588325,-3.670917324576962)" fill="#4a4a4a"><path d="M16.98 20 l-2.98 0 l0 -5.64 c0 -1.52 -0.42 -2.16 -1.54 -2.16 c-1.2 0 -1.9 0.64 -1.9 2.16 l0 5.64 l-2.98 0 l0 -5.64 c0 -1.52 -0.4 -2.16 -1.54 -2.16 c-1.2 0 -1.92 0.64 -1.92 2.16 l0 5.64 l-2.96 0 l0 -9.88 l2.96 0 l0 0.9 c0.7 -0.7 1.76 -1.04 2.7 -1.04 c1.4 0 2.3 0.52 2.94 1.34 c0.54 -0.66 1.7 -1.26 3.44 -1.34 c2.78 0 3.78 1.32 3.78 4.38 l0 5.64 z M26.12 10.12 l3.08 0 s-2.56 6.02 -4.06 9.6 c-1.34 3.18 -2.32 5.1 -4.46 5.1 c-0.88 0 -1.94 -0.86 -2.24 -1.1 l0.86 -2.44 c0.4 0.38 0.92 0.62 1.34 0.62 c1.02 0 1.56 -2.06 1.9 -3.26 l-3.62 -8.52 l3.08 0 l2.06 4.94 c0.66 -1.6 1.42 -3.42 2.06 -4.94 z M36.56 5.82 l0 2.34 c-0.42 -0.38 -1.08 -0.4 -1.26 -0.4 c-1.02 0 -1.08 1.08 -1.08 1.9 l0 0.46 l2.34 0 l0 2.44 l-2.34 0 l0 7.44 l-2.96 0 l0 -7.44 l-1.1 0 l0 -2.44 l1.1 0 l0 -0.46 c0 -3.12 1.16 -4.36 3.68 -4.36 c0.6 0 1.16 0.24 1.62 0.52 z M41.300000000000004 5.119999999999999 l0 14.88 l-2.98 0 l0 -14.88 l2.98 0 z M46.660000000000004 10.12 l0 9.88 l-2.96 0 l0 -9.88 l2.96 0 z M46.74 7.279999999999999 c0 0.84 -0.68 1.5 -1.58 1.5 c-0.86 0 -1.56 -0.66 -1.56 -1.5 c0 -0.82 0.7 -1.46 1.56 -1.46 c0.9 0 1.58 0.64 1.58 1.46 z M57.620000000000005 10.12 l-3.5 4.94 l3.5 4.94 l-3.4 0 l-1.68 -2.72 l-1.68 2.72 l-3.42 0 l3.52 -4.94 l-3.52 -4.94 l3.4 0 l1.68 2.7 c0.6 -0.88 1.12 -1.84 1.7 -2.7 l3.4 0 z"/></g></svg>